<?xml version="1.0" standalone="no"?>
<!DOCTYPE svg PUBLIC "-//W3C//DTD SVG 20010904//EN"
 "http://www.w3.org/TR/2001/REC-SVG-20010904/DTD/svg10.dtd">
<svg version="1.0" xmlns="http://www.w3.org/2000/svg"
 width="300.000000pt" height="152.000000pt" viewBox="0 0 300.000000 152.000000"
 preserveAspectRatio="xMidYMid meet">
<metadata>
Created by potrace 1.10, written by Peter Selinger 2001-2011
</metadata>
<g transform="translate(0.000000,152.000000) scale(0.100000,-0.100000)"
fill="#000000" stroke="none">
<path d="M1994 1371 c-81 -20 -239 -133 -297 -211 -52 -70 -107 -173 -193
-362 -132 -289 -267 -452 -444 -533 -58 -27 -75 -30 -165 -30 -91 0 -106 3
-165 31 -64 30 -89 53 -221 198 -59 64 -140 109 -220 121 -52 8 -150 -22 -184
-55 l-20 -21 44 16 c24 8 64 15 90 15 98 -1 165 -45 265 -174 143 -182 258
-250 423 -249 286 2 493 178 799 678 150 247 219 323 337 375 59 26 159 36
215 21 90 -25 164 -131 148 -215 -8 -43 -54 -99 -95 -115 -40 -17 -95 -11 -99
11 -3 14 4 17 32 16 70 -3 90 56 36 107 -24 23 -41 29 -87 32 -72 5 -119 -18
-150 -73 -34 -60 -30 -97 13 -131 41 -31 64 -76 64 -126 0 -18 6 -40 13 -49
26 -33 127 -49 169 -27 11 6 41 26 65 45 49 37 74 41 163 24 105 -20 196 35
226 136 15 52 15 55 -11 116 -20 48 -28 86 -31 158 -7 134 -11 155 -41 191
-63 74 -200 101 -309 60 -51 -20 -53 -20 -145 -1 -123 24 -187 30 -225 21z
m142 -32 c32 -6 68 -15 78 -21 28 -15 120 -11 174 8 55 20 97 19 169 -2 44
-12 60 -24 93 -65 l40 -51 0 -104 c0 -80 5 -118 21 -165 30 -88 21 -126 -45
-190 -22 -21 -30 -22 -171 -23 -84 -1 -105 -4 -129 -21 -60 -42 -84 -53 -125
-59 -36 -5 -46 -2 -67 19 -13 13 -24 33 -24 45 0 11 0 23 -1 28 -3 18 -39 79
-61 103 -34 36 -40 56 -26 82 40 77 118 102 177 55 30 -23 32 -27 20 -47 -8
-11 -22 -21 -31 -21 -10 0 -23 -10 -29 -22 -10 -18 -8 -24 11 -40 54 -44 160
-8 203 69 19 35 22 99 6 158 -13 47 -84 125 -114 125 -12 0 -25 4 -31 10 -5 5
-47 10 -94 11 -71 2 -96 -2 -147 -23 -68 -28 -158 -95 -192 -144 -11 -16 -29
-39 -39 -50 -18 -19 -77 -117 -74 -121 1 -2 -6 -11 -16 -21 -10 -10 -28 -38
-40 -63 -12 -24 -32 -56 -45 -71 -13 -14 -32 -44 -43 -65 -10 -21 -25 -42 -31
-46 -7 -4 -13 -12 -13 -18 0 -38 -284 -349 -319 -349 -5 0 -16 -6 -23 -14 -18
-18 -96 -57 -122 -62 -12 -2 -48 -8 -81 -15 -66 -12 -191 -5 -233 14 -80 34
-154 97 -237 201 -16 20 -37 45 -45 55 -39 45 -44 52 -29 46 8 -3 28 -22 44
-42 33 -39 143 -151 167 -169 23 -18 62 -38 78 -40 151 -25 173 -26 242 -9 69
17 114 34 153 58 73 46 106 70 147 113 81 85 118 137 185 269 9 17 20 37 24
45 5 8 14 26 19 39 6 13 34 71 63 130 28 58 52 111 52 117 0 6 8 19 18 28 9
10 17 22 17 28 0 20 89 136 127 166 21 16 79 55 128 85 98 62 116 65 221 46z"/>
<path d="M1110 1257 c-27 -9 -40 -23 -58 -60 -18 -37 -34 -54 -77 -78 -90 -51
-116 -110 -79 -181 14 -27 15 -39 4 -84 -15 -63 -11 -78 32 -104 44 -26 78
-25 138 5 32 16 66 25 96 25 39 0 51 5 75 31 62 66 26 149 -64 149 -52 0 -69
-10 -82 -49 -12 -37 -29 -41 -33 -8 -7 59 79 108 154 88 85 -23 117 -111 67
-180 -18 -23 -23 -44 -23 -88 -1 -256 -201 -448 -406 -388 -53 15 -69 27 -169
127 -131 132 -180 159 -296 166 -83 5 -119 -12 -52 -24 92 -17 124 -40 294
-221 83 -89 144 -116 264 -116 97 0 156 21 248 87 115 81 203 194 288 370 51
104 67 164 55 210 -3 13 -26 48 -51 77 -25 30 -51 72 -57 94 -16 54 -102 140
-154 154 -48 13 -70 13 -114 -2z m114 -37 c51 -19 95 -64 117 -117 12 -29 26
-53 31 -53 5 0 7 -4 4 -9 -3 -4 6 -19 19 -31 14 -13 25 -29 25 -37 0 -7 4 -13
9 -13 8 0 35 -55 36 -75 1 -5 -2 -14 -6 -20 -3 -5 -12 -28 -19 -50 -12 -40
-60 -146 -70 -155 -4 -3 -17 -23 -30 -45 -13 -22 -37 -53 -52 -70 l-29 -29 2
34 c2 19 6 40 9 45 10 13 21 79 24 135 2 25 10 60 19 77 21 40 22 101 2 141
-17 33 -80 76 -101 68 -7 -3 -16 -1 -19 4 -4 6 -11 10 -16 10 -6 0 -7 -5 -4
-11 5 -7 -4 -8 -27 -4 -27 5 -39 1 -71 -25 -20 -18 -35 -35 -32 -40 3 -5 1
-11 -4 -14 -10 -7 -3 -44 12 -63 16 -21 47 -15 59 13 15 32 56 54 83 44 48
-18 54 -55 16 -99 -14 -16 -30 -21 -65 -21 -25 0 -46 -4 -46 -10 0 -5 -11 -10
-24 -10 -14 0 -28 -4 -31 -10 -9 -15 -77 -11 -99 5 -15 12 -18 22 -12 62 3 31
1 62 -8 88 -8 22 -12 54 -9 70 6 33 39 75 60 75 7 0 13 5 13 10 0 6 6 10 14
10 8 0 27 16 43 36 61 77 77 90 114 92 20 1 49 -2 63 -8z m-593 -755 c51 -52
95 -99 97 -105 2 -5 9 -7 14 -4 7 4 8 2 4 -5 -10 -15 -58 13 -100 58 -17 18
-43 47 -58 63 -16 16 -28 34 -28 40 0 6 -10 19 -22 29 -11 11 -17 19 -11 19 5
0 52 -43 104 -95z"/>
<path d="M2120 1159 c-75 -15 -145 -56 -205 -121 -61 -65 -75 -87 -205 -298
-198 -323 -353 -496 -522 -581 -68 -34 -75 -44 -17 -24 144 51 295 165 424
321 167 202 318 344 381 360 27 7 29 13 13 48 -27 59 55 173 142 196 94 26
206 -32 212 -109 2 -32 15 -25 26 14 34 125 -94 225 -249 194z m109 -25 c27
-6 97 -62 88 -71 -2 -1 -28 4 -58 13 -62 19 -128 15 -182 -10 -49 -24 -117
-105 -118 -142 -3 -71 -9 -82 -69 -121 -32 -20 -56 -41 -54 -45 3 -5 -2 -8
-10 -8 -9 0 -16 -5 -16 -11 0 -5 -4 -7 -10 -4 -5 3 -10 2 -10 -3 0 -5 -18 -28
-40 -51 -22 -22 -40 -37 -40 -32 0 11 36 87 62 131 11 19 28 49 37 65 43 75
57 95 67 95 6 0 17 12 24 28 31 61 157 151 225 160 17 2 32 6 34 8 6 6 34 5
70 -2z"/>
<path d="M1189 752 l-36 -3 0 -74 c-1 -80 -27 -153 -76 -211 -62 -74 -188 -99
-277 -55 l-45 22 28 -25 c15 -14 52 -33 83 -42 123 -36 254 37 320 180 27 59
47 143 42 183 -3 26 -6 28 -39 25z"/>
</g>
</svg>
