<?xml version="1.0" standalone="no"?>
<!DOCTYPE svg PUBLIC "-//W3C//DTD SVG 20010904//EN"
 "http://www.w3.org/TR/2001/REC-SVG-20010904/DTD/svg10.dtd">
<svg version="1.0" xmlns="http://www.w3.org/2000/svg"
 width="300.000000pt" height="138.000000pt" viewBox="0 0 300.000000 138.000000"
 preserveAspectRatio="xMidYMid meet">
<metadata>
Created by potrace 1.10, written by Peter Selinger 2001-2011
</metadata>
<g transform="translate(0.000000,138.000000) scale(0.100000,-0.100000)"
fill="#000000" stroke="none">
<path d="M1290 1226 c-30 -7 -73 -22 -95 -33 -59 -31 -142 -120 -177 -190 -28
-57 -30 -69 -26 -134 5 -62 10 -78 44 -127 32 -46 52 -64 108 -92 63 -32 76
-35 150 -34 93 1 152 22 202 72 107 107 21 320 -114 283 -64 -18 -103 -76 -71
-108 8 -8 7 -13 -1 -18 -17 -11 -42 19 -42 49 0 38 28 75 75 97 56 25 92 24
141 -5 75 -44 115 -161 82 -240 -9 -21 -16 -40 -16 -41 0 -2 17 1 38 7 57 16
143 4 204 -28 88 -48 121 -141 79 -222 -37 -72 -97 -112 -167 -112 -77 0 -119
47 -115 128 2 35 53 82 90 82 33 0 71 -30 71 -55 0 -22 -37 -55 -55 -49 -22 9
-18 31 7 38 21 5 22 7 7 22 -33 32 -89 -7 -89 -61 0 -70 99 -99 169 -48 31 23
71 97 71 134 0 38 -40 91 -90 118 -36 20 -58 25 -119 24 -92 0 -135 -17 -194
-75 -74 -74 -87 -186 -34 -301 49 -106 117 -158 232 -178 60 -10 78 -10 126 4
64 19 133 74 166 135 l23 40 -30 12 c-16 7 -36 23 -45 36 -20 30 -20 74 0 74
8 0 15 -9 15 -19 0 -11 11 -32 23 -47 20 -23 34 -28 84 -32 66 -5 123 17 175
65 18 18 33 23 45 18 16 -6 13 -11 -20 -40 -54 -47 -119 -75 -172 -75 -40 0
-45 -2 -45 -23 0 -12 13 -37 30 -55 96 -105 265 -74 351 64 18 30 18 33 3 61
-52 89 66 186 133 109 28 -33 32 -89 6 -84 -11 2 -17 11 -15 21 2 9 -2 26 -8
37 -17 31 -70 24 -90 -12 -13 -25 -13 -31 0 -55 24 -42 58 -57 112 -49 26 4
61 17 80 29 28 19 33 30 36 67 4 58 16 70 68 70 51 0 68 19 79 87 12 74 67
122 142 124 l38 1 -35 15 c-55 24 -112 28 -149 8 -18 -9 -59 -41 -91 -70 -72
-67 -108 -85 -174 -91 -67 -7 -100 14 -165 103 -27 37 -63 76 -79 86 -35 20
-90 22 -127 5 -19 -8 -28 -9 -37 0 -8 8 -2 22 25 52 31 34 37 47 37 86 0 40
-5 51 -38 84 -39 39 -117 70 -176 70 -43 -1 -112 -34 -127 -61 -7 -13 -17 -46
-23 -73 -16 -70 -31 -54 -31 34 -1 89 -15 120 -79 177 -62 55 -135 92 -213
108 -81 17 -119 17 -193 1z m275 -64 c73 -34 136 -87 161 -134 8 -15 14 -55
14 -92 0 -54 4 -69 22 -86 19 -17 24 -18 42 -6 12 7 27 35 35 62 26 93 113
124 214 75 85 -41 103 -85 61 -146 -36 -53 -38 -90 -6 -111 19 -13 30 -14 49
-5 55 25 107 3 155 -67 18 -26 53 -66 78 -90 44 -42 44 -44 25 -58 -65 -46
-71 -61 -66 -161 2 -35 -3 -47 -34 -82 -69 -76 -186 -89 -244 -27 l-23 25 53
15 c122 37 199 126 140 163 -16 10 -26 8 -58 -14 -118 -81 -198 -82 -249 -5
-14 20 -17 43 -15 90 3 77 -23 138 -78 182 -41 31 -131 60 -192 60 l-36 0 -6
65 c-7 89 -39 151 -101 193 -34 23 -60 32 -88 32 -44 0 -115 -29 -140 -57 -24
-28 -46 -76 -41 -93 24 -83 87 -95 99 -18 8 50 40 73 87 64 97 -18 120 -167
38 -234 -24 -19 -68 -42 -88 -45 -10 -2 -30 -7 -45 -11 -32 -9 -130 10 -179
35 -39 20 -80 63 -106 112 -24 47 -21 143 6 196 44 85 154 184 226 202 17 5
73 7 125 6 84 -2 103 -7 165 -35z m1220 -508 c-9 -15 -25 -49 -34 -78 -14 -40
-23 -52 -42 -54 -65 -8 -88 -32 -104 -109 -10 -48 -32 -49 -38 -2 -3 22 -17
53 -32 71 l-27 32 43 12 c65 16 104 39 170 100 63 58 92 71 64 28z m-1039 -20
c75 -36 96 -108 48 -171 -14 -18 -32 -33 -40 -33 -18 0 -18 16 -1 27 47 27 13
117 -48 129 -73 13 -135 -36 -142 -113 -11 -127 122 -199 240 -130 l44 26 32
-37 c17 -20 31 -44 31 -53 0 -27 -84 -97 -132 -109 -57 -16 -154 -7 -203 18
-79 40 -125 107 -145 207 -24 119 29 207 150 248 34 12 134 6 166 -9z m726
-241 c18 -16 25 -43 10 -43 -14 0 -53 46 -45 53 9 10 14 9 35 -10z"/>
<path d="M887 779 c-95 -22 -187 -135 -187 -231 0 -35 33 -99 61 -119 36 -26
115 -35 164 -19 50 16 73 66 51 109 -26 49 -82 56 -115 15 -11 -14 -25 -23
-31 -19 -16 10 -12 24 15 50 36 37 97 35 135 -4 38 -37 45 -70 26 -114 -24
-58 -67 -79 -153 -75 -54 3 -79 9 -100 24 -39 29 -71 80 -78 123 -9 55 -18 65
-68 75 -75 15 -125 -10 -187 -94 -27 -38 -61 -77 -75 -86 -42 -27 -105 -29
-160 -5 -26 11 -61 21 -77 21 l-30 0 22 -18 c13 -10 37 -45 55 -77 20 -38 43
-65 66 -77 53 -29 86 -20 244 72 77 45 116 41 260 -27 105 -51 128 -58 180
-58 47 0 71 6 109 28 35 20 53 24 60 17 16 -16 -27 -47 -93 -66 -69 -21 -136
-14 -201 19 -27 14 -50 23 -50 19 0 -10 86 -82 135 -115 85 -56 190 -45 264
29 24 24 45 44 46 44 2 0 17 -13 34 -29 56 -53 126 -52 186 1 l34 29 -32 62
c-29 56 -32 70 -32 152 0 66 5 99 18 124 9 19 17 35 17 37 0 1 -15 -2 -32 -7
-79 -22 -189 -3 -269 47 -44 27 -108 100 -115 131 -7 25 -29 28 -97 12z m105
-83 c24 -29 63 -67 88 -83 52 -34 147 -63 208 -63 23 0 42 -3 42 -7 2 -157 9
-222 29 -260 27 -53 26 -57 -4 -77 -35 -23 -75 -20 -117 9 -51 34 -80 32 -127
-10 -53 -48 -133 -69 -185 -49 -26 10 -18 24 14 24 35 0 117 38 142 67 22 25
13 61 -18 69 -15 4 -36 -2 -59 -16 -64 -40 -182 -23 -275 40 -37 25 -126 50
-176 50 -42 0 -96 -23 -214 -90 -19 -11 -47 -20 -62 -20 -29 0 -102 56 -92 71
3 5 30 9 60 9 30 0 69 6 87 14 32 13 108 88 141 138 22 33 63 50 111 46 41 -3
44 -7 70 -81 19 -53 63 -101 112 -123 43 -19 156 -18 193 1 39 20 77 72 84
115 9 47 -18 97 -68 131 -32 21 -45 25 -75 19 -53 -11 -68 -19 -85 -45 -29
-44 11 -99 51 -70 39 30 92 8 79 -33 -7 -20 -45 -42 -73 -42 -9 0 -34 5 -56
12 -68 21 -97 102 -63 181 18 43 75 98 117 113 61 22 75 18 121 -40z"/>
</g>
</svg>
