<?xml version="1.0" standalone="no"?>
<!DOCTYPE svg PUBLIC "-//W3C//DTD SVG 20010904//EN"
 "http://www.w3.org/TR/2001/REC-SVG-20010904/DTD/svg10.dtd">
<svg version="1.0" xmlns="http://www.w3.org/2000/svg"
 width="300.000000pt" height="184.000000pt" viewBox="0 0 300.000000 184.000000"
 preserveAspectRatio="xMidYMid meet">
<metadata>
Created by potrace 1.10, written by Peter Selinger 2001-2011
</metadata>
<g transform="translate(0.000000,184.000000) scale(0.100000,-0.100000)"
fill="#000000" stroke="none">
<path d="M1467 1610 c-101 -26 -196 -97 -242 -182 -24 -44 -30 -68 -33 -140
-3 -58 -1 -88 6 -88 6 0 14 10 17 23 14 43 56 86 111 112 50 24 58 25 72 12
20 -21 10 -43 -25 -51 -45 -12 -94 -55 -115 -104 -16 -36 -20 -60 -16 -122 7
-120 57 -201 153 -246 81 -39 151 -29 230 32 34 25 39 26 111 20 146 -13 224
44 224 167 0 138 -106 253 -245 264 -100 9 -155 -37 -155 -126 0 -35 37 -66
67 -57 25 8 46 -8 41 -30 -5 -28 -73 -30 -115 -5 -97 60 -46 229 82 271 81 27
210 -14 284 -90 67 -70 95 -138 97 -244 2 -50 7 -109 13 -131 26 -101 -1 -268
-61 -374 -90 -158 -258 -251 -453 -251 -145 0 -260 40 -421 146 -190 124 -312
165 -433 144 -76 -13 -117 -33 -235 -112 -144 -98 -247 -134 -315 -110 -41 14
-39 1 4 -37 92 -80 184 -94 316 -46 175 63 193 68 284 69 158 1 259 -39 483
-191 125 -85 213 -133 242 -133 8 0 -9 14 -37 31 -29 17 -53 34 -53 38 0 5
-27 23 -60 40 -33 18 -74 44 -90 59 -16 15 -54 40 -84 56 -31 16 -53 32 -51
36 3 4 -7 7 -21 7 -13 0 -32 7 -42 16 -9 8 -56 27 -103 41 -71 22 -104 27
-181 25 -52 -1 -114 -8 -139 -15 -106 -34 -145 -47 -153 -55 -6 -5 -33 -9 -60
-9 -37 0 -47 -3 -36 -10 11 -7 4 -10 -27 -10 -25 0 -43 5 -43 11 0 7 -9 9 -24
5 -17 -4 -26 -1 -30 10 -7 17 19 43 42 44 34 1 239 121 257 151 3 4 12 6 20 2
8 -3 15 -1 15 4 0 22 80 53 152 59 62 6 86 3 139 -15 35 -13 71 -28 79 -35 8
-7 30 -18 48 -26 17 -7 32 -16 32 -21 0 -5 7 -9 15 -9 9 0 21 -5 28 -10 55
-46 179 -113 257 -138 111 -35 145 -42 218 -42 158 0 297 55 403 160 55 54
109 136 109 165 0 4 6 21 14 38 37 81 45 211 21 312 -8 33 -14 87 -15 120 0
33 -8 89 -18 123 -14 52 -28 74 -70 117 -29 30 -74 66 -100 82 -44 26 -54 28
-155 28 -87 0 -111 -3 -120 -16 -7 -8 -25 -24 -40 -34 -15 -10 -26 -23 -24
-29 2 -6 -2 -16 -10 -21 -23 -17 -29 -119 -9 -164 23 -51 83 -84 135 -75 46 8
61 21 61 49 0 26 -18 43 -57 54 -39 10 -51 66 -20 97 30 29 90 48 114 35 10
-5 29 -12 43 -15 14 -3 51 -29 83 -59 43 -40 57 -60 57 -80 0 -16 4 -26 9 -23
11 7 22 -59 14 -95 -3 -16 -9 -26 -14 -23 -5 2 -11 -7 -15 -21 -3 -14 -10 -25
-14 -25 -5 0 -16 -8 -26 -17 -12 -13 -39 -18 -108 -20 -94 -4 -169 -20 -160
-34 3 -5 -4 -9 -15 -9 -12 0 -21 -4 -21 -9 0 -4 -25 -11 -57 -14 -64 -7 -101
6 -148 50 -56 52 -104 175 -90 230 13 54 45 112 65 118 11 3 20 11 20 16 0 5
8 9 18 9 24 0 62 41 62 66 -1 50 -46 67 -101 39 -16 -9 -34 -13 -39 -10 -5 3
-14 -4 -20 -15 -15 -29 -50 -27 -43 3 8 32 40 99 61 123 22 26 112 99 112 90
0 -4 12 1 26 11 39 25 200 31 245 9 17 -9 43 -16 56 -16 12 0 23 -4 23 -10 0
-13 57 -13 65 1 4 6 14 8 22 5 9 -4 21 -1 29 5 32 26 284 -11 284 -42 0 -5 9
-9 20 -9 11 0 20 -4 20 -10 0 -5 6 -10 13 -10 6 0 25 -18 41 -40 21 -28 32
-36 38 -27 5 9 8 7 8 -5 0 -9 16 -34 36 -54 59 -63 113 -204 78 -204 -8 0 -42
-8 -76 -17 -46 -13 -71 -27 -99 -57 -21 -21 -36 -43 -33 -48 3 -4 1 -8 -4 -8
-27 0 -15 -119 18 -179 33 -63 104 -110 171 -114 19 -1 40 -6 47 -10 14 -9 17
-77 3 -77 -5 0 -9 -19 -9 -42 1 -28 -9 -60 -26 -92 -14 -27 -26 -53 -26 -58 0
-5 -11 -21 -25 -36 -14 -15 -25 -32 -25 -38 0 -23 -111 -123 -169 -151 -26
-13 -42 -23 -37 -23 5 0 -12 -11 -37 -25 -26 -13 -54 -22 -62 -19 -8 4 -15 1
-15 -4 0 -6 -26 -16 -57 -22 -32 -7 -66 -16 -75 -21 -10 -5 -75 -14 -145 -20
-71 -7 -134 -16 -140 -22 -7 -5 -13 -25 -13 -43 l0 -34 150 0 c93 0 150 4 150
10 0 12 22 9 32 -5 5 -6 8 -5 8 3 0 6 9 12 19 12 11 0 23 5 26 10 3 6 16 10
28 10 12 0 35 7 50 15 15 8 34 12 42 8 8 -3 15 0 15 6 0 6 9 11 19 11 11 0 23
5 26 10 3 6 15 10 26 10 13 0 18 4 13 12 -4 7 -3 8 4 4 10 -6 64 29 137 89 16
14 33 25 37 25 4 0 8 9 8 20 0 11 6 20 14 20 8 0 18 9 21 20 3 11 12 20 19 20
7 0 21 18 31 40 10 22 22 40 27 40 5 0 8 6 5 13 -2 6 4 26 14 43 24 40 58 189
65 283 2 42 6 97 9 123 3 39 0 53 -19 75 -32 37 -69 27 -92 -27 -21 -48 -63
-63 -96 -33 -12 10 -18 12 -13 4 5 -9 3 -12 -6 -9 -7 2 -16 15 -19 27 -3 12
-9 23 -15 24 -5 1 -10 7 -10 12 0 6 -3 15 -7 20 -12 19 22 71 58 88 72 35 153
19 211 -41 23 -25 41 -48 38 -50 -2 -3 1 -14 8 -26 37 -68 50 -241 23 -321 -7
-22 -19 -58 -26 -79 -20 -64 -109 -196 -184 -273 -38 -40 -73 -70 -77 -67 -5
3 -9 0 -9 -6 0 -6 -4 -9 -9 -5 -5 3 -16 -4 -23 -14 -8 -11 -26 -25 -41 -30
-15 -6 -27 -15 -27 -20 0 -5 -15 -14 -32 -22 -18 -7 -35 -16 -38 -20 -3 -3
-27 -18 -55 -34 -71 -38 -13 -25 82 20 142 66 305 212 382 339 18 31 47 95 64
143 27 77 31 102 31 198 1 172 -44 278 -139 332 -78 44 -207 23 -248 -41 -40
-60 -6 -144 73 -184 70 -36 126 -12 132 56 3 37 29 55 49 35 4 -4 4 -75 -1
-158 -15 -246 -62 -359 -209 -505 -70 -70 -103 -94 -181 -132 -174 -86 -512
-149 -550 -103 -23 28 5 45 75 45 144 0 335 48 469 118 200 105 315 284 341
531 7 60 6 64 -11 56 -73 -32 -164 -2 -221 73 -59 78 -49 188 23 239 46 33
124 55 167 49 46 -8 47 -2 8 93 -40 98 -82 160 -155 228 -135 126 -289 169
-451 126 -62 -16 -63 -16 -116 7 -60 26 -186 36 -252 20z"/>
<path d="M0 956 c0 -8 14 -16 38 -18 50 -7 52 -2 7 16 -45 19 -45 19 -45 2z"/>
<path d="M1960 890 c0 -20 -93 -70 -131 -70 l-36 0 1 -68 c0 -57 -4 -76 -27
-115 -56 -95 -161 -173 -272 -202 -92 -24 -233 -19 -325 10 -49 16 -3 -21 67
-53 98 -45 175 -62 278 -62 259 0 429 148 466 405 9 65 2 165 -12 165 -5 0 -9
-5 -9 -10z m-8 -135 c-2 -33 -10 -81 -18 -107 -17 -53 -82 -150 -128 -191 -70
-63 -192 -107 -294 -107 -89 0 -120 24 -56 42 116 35 259 109 273 142 2 5 12
17 22 27 11 11 19 23 19 27 0 5 8 17 18 28 10 10 19 22 19 27 1 4 5 29 8 55 4
26 9 54 12 62 4 8 7 19 7 25 1 5 16 12 34 16 18 4 36 10 40 13 3 4 15 6 27 4
18 -3 20 -9 17 -63z"/>
</g>
</svg>
